<?xml version="1.0" encoding="UTF-8" standalone="no"?>
<!-- Created with Inkscape (http://www.inkscape.org/) -->

<svg
   width="23.327274mm"
   height="35.670639mm"
   viewBox="0 0 23.327274 35.670639"
   version="1.1"
   id="svg5"
   inkscape:version="1.2.2 (b0a84865, 2022-12-01)"
   sodipodi:docname="mir_ref_logo.svg"
   xmlns:inkscape="http://www.inkscape.org/namespaces/inkscape"
   xmlns:sodipodi="http://sodipodi.sourceforge.net/DTD/sodipodi-0.dtd"
   xmlns:xlink="http://www.w3.org/1999/xlink"
   xmlns="http://www.w3.org/2000/svg"
   xmlns:svg="http://www.w3.org/2000/svg">
  <sodipodi:namedview
     id="namedview7"
     pagecolor="#ffffff"
     bordercolor="#000000"
     borderopacity="0.25"
     inkscape:showpageshadow="2"
     inkscape:pageopacity="0.0"
     inkscape:pagecheckerboard="0"
     inkscape:deskcolor="#d1d1d1"
     inkscape:document-units="mm"
     showgrid="false"
     inkscape:zoom="2.0122554"
     inkscape:cx="68.331288"
     inkscape:cy="21.617535"
     inkscape:window-width="1390"
     inkscape:window-height="997"
     inkscape:window-x="0"
     inkscape:window-y="25"
     inkscape:window-maximized="0"
     inkscape:current-layer="g1040" />
  <defs
     id="defs2">
    <linearGradient
       inkscape:collect="always"
       id="linearGradient7277">
      <stop
         style="stop-color:#480060;stop-opacity:1;"
         offset="0"
         id="stop7273" />
      <stop
         style="stop-color:#ef0b60;stop-opacity:1;"
         offset="1"
         id="stop7275" />
    </linearGradient>
    <linearGradient
       inkscape:collect="always"
       id="linearGradient1046">
      <stop
         style="stop-color:#480060;stop-opacity:1;"
         offset="0"
         id="stop1042" />
      <stop
         style="stop-color:#ef0b60;stop-opacity:1;"
         offset="1"
         id="stop1044" />
    </linearGradient>
    <inkscape:path-effect
       effect="taper_stroke"
       id="path-effect9096"
       is_visible="true"
       lpeversion="1"
       stroke_width="2.7"
       attach_start="1e-07"
       end_offset="1.3853359"
       start_smoothing="0"
       end_smoothing="0.8"
       jointype="extrapolated"
       start_shape="center"
       end_shape="center"
       miter_limit="100" />
    <inkscape:path-effect
       effect="taper_stroke"
       id="path-effect9096-2"
       is_visible="true"
       lpeversion="1"
       stroke_width="2.7"
       attach_start="0"
       end_offset="1.1"
       start_smoothing="0"
       end_smoothing="0.8"
       jointype="extrapolated"
       start_shape="center"
       end_shape="center"
       miter_limit="100" />
    <inkscape:path-effect
       effect="taper_stroke"
       id="path-effect9096-1"
       is_visible="true"
       lpeversion="1"
       stroke_width="2.7"
       attach_start="1e-07"
       end_offset="1.3853359"
       start_smoothing="0"
       end_smoothing="0.8"
       jointype="extrapolated"
       start_shape="center"
       end_shape="center"
       miter_limit="100" />
    <inkscape:path-effect
       effect="taper_stroke"
       id="path-effect9096-1-6"
       is_visible="true"
       lpeversion="1"
       stroke_width="2.7"
       attach_start="1e-07"
       end_offset="1.3853359"
       start_smoothing="0"
       end_smoothing="0.8"
       jointype="extrapolated"
       start_shape="center"
       end_shape="center"
       miter_limit="100" />
    <inkscape:path-effect
       effect="taper_stroke"
       id="path-effect9096-1-0"
       is_visible="true"
       lpeversion="1"
       stroke_width="2.7"
       attach_start="1e-07"
       end_offset="1.3853359"
       start_smoothing="0"
       end_smoothing="0.8"
       jointype="extrapolated"
       start_shape="center"
       end_shape="center"
       miter_limit="100" />
    <inkscape:path-effect
       effect="taper_stroke"
       id="path-effect9096-1-09"
       is_visible="true"
       lpeversion="1"
       stroke_width="2.7"
       attach_start="1e-07"
       end_offset="1.3853359"
       start_smoothing="0"
       end_smoothing="0.8"
       jointype="extrapolated"
       start_shape="center"
       end_shape="center"
       miter_limit="100" />
    <linearGradient
       inkscape:collect="always"
       xlink:href="#linearGradient1046"
       id="linearGradient1048"
       x1="59.682449"
       y1="246.69666"
       x2="83.009727"
       y2="246.69666"
       gradientUnits="userSpaceOnUse" />
    <linearGradient
       inkscape:collect="always"
       xlink:href="#linearGradient1046"
       id="linearGradient7263"
       gradientUnits="userSpaceOnUse"
       x1="60.753407"
       y1="256.93027"
       x2="83.009727"
       y2="246.69666" />
    <linearGradient
       inkscape:collect="always"
       xlink:href="#linearGradient1046"
       id="linearGradient7265"
       gradientUnits="userSpaceOnUse"
       x1="60.753407"
       y1="256.93027"
       x2="83.009727"
       y2="246.69666" />
    <linearGradient
       inkscape:collect="always"
       xlink:href="#linearGradient1046"
       id="linearGradient7267"
       gradientUnits="userSpaceOnUse"
       x1="60.753407"
       y1="256.93027"
       x2="83.009727"
       y2="246.69666" />
    <linearGradient
       inkscape:collect="always"
       xlink:href="#linearGradient1046"
       id="linearGradient7269"
       gradientUnits="userSpaceOnUse"
       x1="60.753407"
       y1="256.93027"
       x2="83.009727"
       y2="246.69666" />
    <linearGradient
       inkscape:collect="always"
       xlink:href="#linearGradient7277"
       id="linearGradient7283"
       gradientUnits="userSpaceOnUse"
       x1="60.753407"
       y1="256.93027"
       x2="83.009727"
       y2="246.69666" />
  </defs>
  <g
     inkscape:label="Layer 1"
     inkscape:groupmode="layer"
     id="layer1"
     transform="translate(-59.682451,-228.86133)">
    <g
       id="g1040"
       style="fill:url(#linearGradient1048);fill-opacity:1"
       inkscape:groupmode="layer">
      <path
         style="fill:url(#linearGradient7283);fill-opacity:1;fill-rule:nonzero;stroke:none;stroke-width:2.7;stroke-linecap:butt;stroke-linejoin:bevel;stroke-dasharray:none;stroke-opacity:1;paint-order:markers stroke fill"
         d="m 81.791452,263.36472 -13.87937,-28.95589 a 12.76268,12.76268 0 0 1 -0.0041,-0.008 c -0.851827,-1.71541 -0.864187,-2.70965 -0.864187,-2.70965 -0.01418,-0.19455 -0.0031,-0.28995 0.01185,-0.35027 0.009,-0.0361 -0.09302,0.11607 -0.09302,0.11607 0,0 -0.198261,0.0827 -0.103627,0.0795 0.01054,-3.6e-4 0.02312,-4.9e-4 0.03789,-1.7e-4 0.311123,0.007 0.888942,0.15014 1.96484,0.704 4.52245,2.32812 1.715824,7.1722 0.107818,9.99922 0,0 0.202352,-0.27556 0.166181,-0.25013 -0.01249,0.009 -0.02579,0.0181 -0.04014,0.0281 -1.239002,0.86245 -8.577807,5.46914 -4.973944,13.05749 3.106084,6.54021 9.447143,6.68429 13.870091,4.48122 2.555545,-1.27291 4.682583,-4.22113 4.98753,-7.41034 0.221541,-2.49541 -0.793568,-4.64496 -2.125729,-6.02902 -1.204695,-1.31743 -2.953783,-1.8882 -4.515306,-1.64777 l 0,0 c -1.685758,0.38899 -2.803359,1.43963 -3.450506,2.20364 l 0,0 c -1.040699,1.18514 -1.6374,2.37806 -1.932577,3.04761 v 0 l 0,0 0,0 c -0.219051,0.49545 -0.348067,0.87963 -0.422237,1.13275 l 0,0 c -0.04426,0.15058 -0.0711,0.26182 -0.08745,0.3377 l 0,0 c 0.0027,0.0463 -0.0047,0.0778 -0.01079,0.0966 0,0 0,0 0,0 -0.0065,0.02 -0.01231,0.0293 -0.01297,0.0305 0,0 0,0 0,0 0,0 0,0 0,0 0,0 0,0 0,0 0,0 0,0 0,0 0,0 0,0 0,0 0,0 0,0 0,0 0,0 0,0 0,0 0,0 0,0 0,0 0,0 0,0 0,0 0,0 0,0 0,0 0,0 0,0 0,0 0,0 0,0 0,0 0,0 0,0 0,0 0,0 0,0 0,0 -4.3e-5,8e-5 -3.7e-5,7e-5 -3.7e-5,7e-5 0,0 -6e-6,1e-5 3.7e-5,-7e-5 0,0 0,0 0,0 0,0 0,0 0,0 0,0 0,0 0,0 0,0 0,0 0,0 0,0 0,0 0,0 0,0 0,0 0,0 0,0 0,0 0,0 0,0 0,0 0,0 0,0 0,0 0,0 0,0 0,0 0,0 0,0 0,0 0,0 0,0 0,0 0,0 0,0 0,0 0,0 0,0 0,0 0,0 6.55e-4,-0.001 0.0051,-0.0112 0.01836,-0.0276 0,0 0,0 0,0 0.01242,-0.0154 0.03494,-0.0385 0.07605,-0.0611 l 0,0 c 0.05541,-0.0532 0.137112,-0.13339 0.245073,-0.24181 l 0,0 c 0.18714,-0.18833 0.455027,-0.46568 0.824262,-0.84299 l 0,0 0,0 0,0 c 0.443011,-0.4521 1.427951,-1.47259 2.45494,-2.24933 l 0,0 c 0.698984,-0.50709 1.719638,-1.20532 2.641496,-1.22732 l 0,0 c 0.697344,-0.11266 1.533233,0.36385 2.295335,1.17913 0.851138,0.9848 1.482023,2.46569 1.314308,4.04198 -0.217033,2.26979 -1.806664,4.40532 -3.503587,5.25056 -3.274492,1.63101 -7.868767,1.74357 -10.227369,-3.22274 -1.429335,-3.00963 -0.477142,-5.26309 0.872963,-6.91335 1.58162,-1.93325 3.531434,-2.81092 3.882918,-3.42885 1.60322,-2.81861 5.744121,-10.15021 -1.218923,-13.73473 -3.926366,-2.02126 -5.946977,-0.70152 -5.74659,2.04773 0,0 -0.0024,1.41613 1.138786,3.71421 l -0.0082,-0.0169 13.875204,28.9472 z"
         id="path837-2-7-1-8-8"
         sodipodi:nodetypes="ccsssssc"
         inkscape:path-effect="#path-effect9096-1"
         inkscape:original-d="m 80.574078,263.94824 -13.875205,-28.9472 c 0,0 -3.597556,-7.24474 2.780775,-3.96123 5.745287,2.95763 2.268978,9.04417 0.663368,11.86698 -0.20485,0.36014 -8.206092,4.42087 -4.801888,11.58881 2.732343,5.75326 8.20001,5.76902 12.04873,3.85198 3.45918,-1.72301 6.20928,-7.37074 2.52554,-11.36595 -4.56815,-4.9544 -9.49371,4.33608 -9.49371,4.33608" />
      <path
         style="fill:url(#linearGradient7269);fill-opacity:1;stroke:#000000;stroke-width:0;stroke-linecap:butt"
         d="m 63.709051,248.17467 3.604709,-4.64575 -3.43089,-1.6595 -2.391968,3.03969 z"
         id="path3262-5-2-3-0-3-5-7-7"
         sodipodi:nodetypes="ccccc" />
      <path
         style="fill:url(#linearGradient7267);fill-opacity:1;stroke:#000000;stroke-width:0;stroke-linecap:butt"
         d="m 64.212228,255.23624 -0.918803,-5.82964 -3.610973,1.33925 0.577921,3.83857 z"
         id="path3262-5-2-3-0-3-8-35-7-6"
         sodipodi:nodetypes="ccccc" />
      <path
         style="fill:url(#linearGradient7265);fill-opacity:1;stroke:#000000;stroke-width:0;stroke-linecap:butt"
         d="m 69.007678,260.01072 -4.35738,-3.94943 -1.91762,3.28761 2.84847,2.61739 z"
         id="path3262-5-2-3-0-3-8-3-4-4-0"
         sodipodi:nodetypes="ccccc" />
      <path
         style="fill:url(#linearGradient7263);fill-opacity:1;stroke:#000000;stroke-width:0;stroke-linecap:butt"
         d="m 75.630608,260.38526 -5.4842,0.0512 0.85973,3.65238 3.87483,-0.0589 z"
         id="path3262-5-2-3-0-3-8-8-3-4-0"
         sodipodi:nodetypes="ccccc" />
    </g>
  </g>
</svg>
